<svg xmlns="http://www.w3.org/2000/svg" width="204" height="40"><title>Ativo 3</title><g id="Camada_2" data-name="Camada 2"><g id="Camada_1-2" data-name="Camada 1"><path d="M0,9.26v9.27H3.52V3.72H18.21V0H0Z"/><path d="M21.73,1.92V3.8h14.8V18.47h3.72V0H21.73Z"/><path d="M7.12,12.86v5.55h3.72V7.32H7.12Z"/><path d="M14.44,12.86v5.55h3.77V7.32H14.44Z"/><path d="M21.85,9.24v1.88H32.93V7.36H21.85Z"/><path d="M102.19,8.87,100.75,9a39.55,39.55,0,0,1-4.1,0L95.13,9h-.64l0,.12a.45.45,0,0,0,0,.23c0,.11.05.11.42.11a2.9,2.9,0,0,1,1.78.46,2,2,0,0,1,.44.9c.06.28.07.87.07,9,0,9.24,0,9-.19,9.49a1.41,1.41,0,0,1-.64.7,3.69,3.69,0,0,1-1.34.25,2.91,2.91,0,0,0-.56.07c-.06,0-.07.26,0,.34a27.72,27.72,0,0,0,3,0c2.53,0,3.08,0,4.1.06a23.87,23.87,0,0,0,3.8,0A8.58,8.58,0,0,0,109,29.26a7.76,7.76,0,0,0,1.46-1.46,6.19,6.19,0,0,0,1-2.53,6.52,6.52,0,0,0-.09-2.3,5.08,5.08,0,0,0-1.43-2.5,7.63,7.63,0,0,0-3.79-1.88,4.7,4.7,0,0,0-.61-.1s-.1,0-.1,0a4.54,4.54,0,0,1,.51-.26,6,6,0,0,0,3.21-3.3,3.91,3.91,0,0,0,.22-1.55,3.37,3.37,0,0,0-.11-1.11C108.62,9.85,106.14,8.67,102.19,8.87Zm1.31.85a3,3,0,0,1,2.17,1.78,5,5,0,0,1,.41,2.22,5,5,0,0,1-1.34,3.75,4.36,4.36,0,0,1-3.53,1l-.67,0,0-3.69a33.66,33.66,0,0,1,.08-4,1.23,1.23,0,0,1,1-1.12A6.18,6.18,0,0,1,103.5,9.72ZM104,19.5a4.63,4.63,0,0,1,2.45,1.34,4.11,4.11,0,0,1,.85,1.26,6.46,6.46,0,0,1,.52,1.69,11.61,11.61,0,0,1,0,2.7,3.82,3.82,0,0,1-3.37,3.38,10.67,10.67,0,0,1-2.46,0,1.65,1.65,0,0,1-1.23-.71c-.26-.43-.25-.29-.25-5.26v-4.5l.15,0c.08,0,.77,0,1.53,0A6,6,0,0,1,104,19.5Z"/><path d="M51.05,9.05c-.06.1,0,.34.07.37l.47,0c1.33,0,1.89.33,2.09,1.2.07.29.08.8.08,9.19,0,7.17,0,8.93-.06,9.13-.19.92-.63,1.18-2.13,1.28-.49,0-.5,0-.53.14a.22.22,0,0,0,0,.21l0,.1h8.26c5.16,0,8.3,0,8.37,0s.21-.13.26-1.45.12-2.42.24-3.62c.1-1,.11-.92-.06-1s-.29,0-.34.17a10,10,0,0,1-.52,1.41,6.2,6.2,0,0,1-5.06,3.5c-.46,0-3.39,0-3.78,0a1.47,1.47,0,0,1-.93-.36c-.25-.24-.34-.54-.39-1.3s-.06-16.29,0-16.87c.12-1.27.57-1.65,2-1.71a3.16,3.16,0,0,0,.63-.06c.06,0,.06-.3,0-.38A6.55,6.55,0,0,0,58,9c-2.13.08-3.16.08-5,0S51.11,8.94,51.05,9.05Z"/><path d="M141.5,13.8s-1.28,2.94-2.78,6.51c-2.74,6.51-3.29,7.74-3.76,8.46a3.36,3.36,0,0,1-1.17,1.13,3,3,0,0,1-1.26.31,1.78,1.78,0,0,1-.82,0,5.25,5.25,0,0,1-1.54-.76c-1.4-1-2.89-2.95-5-6.38l-.51-.84L125,22a5.17,5.17,0,0,0,2.78-3.63,3.25,3.25,0,0,0,0-1.12c-.22-1.58-1.47-2.51-3.79-2.82a27,27,0,0,0-3.59,0,30.62,30.62,0,0,1-4.23,0,10.59,10.59,0,0,0-1.8,0,.68.68,0,0,0,0,.4l.55,0c1.13.07,1.5.32,1.7,1.15a60.78,60.78,0,0,1,.09,6.15c0,6.06,0,6.61-.15,7.1-.2.64-.73.91-1.78.92-.29,0-.4,0-.44.06a.3.3,0,0,0,0,.35c.05.07.16.07,2,0,1.46,0,2.47,0,3.89,0a16.7,16.7,0,0,0,2,0,.67.67,0,0,0,0-.4,1,1,0,0,0-.43,0,3.12,3.12,0,0,1-1.18-.21,1.2,1.2,0,0,1-.58-.7,16.61,16.61,0,0,1-.16-3.76V23l.94,0,1.13,0,.2,0,.22.39c.11.22.47.86.79,1.42,1.88,3.3,3.31,5.36,4.07,5.84l.19.12h2.64c2,0,2.88,0,3.61-.07a33,33,0,0,1,4,0c.43,0,.93.07,1.11.07s.33,0,.37-.08a.28.28,0,0,0,0-.31,3.42,3.42,0,0,0-.59-.09,3,3,0,0,1-1.21-.27c-.81-.41-1-1.22-.47-2.69.08-.25.49-1.29.9-2.29l.76-1.83h4.28L144,25.7c1.35,2.89,1.48,3.22,1.48,3.68a.58.58,0,0,1-.3.62,1.78,1.78,0,0,1-.86.22,1.82,1.82,0,0,0-.47.08.44.44,0,0,0,0,.34,4.92,4.92,0,0,0,1.57,0,31.7,31.7,0,0,1,3.78,0c.52,0,1.27.05,1.66.05h.72l0-.11a.22.22,0,0,0,0-.22c-.06-.1-.08-.11-.43-.14-1.12-.09-1.66-.47-2.45-1.73-.44-.71-1-1.83-4-8.36-1.56-3.39-2.87-6.21-2.9-6.26A.25.25,0,0,0,141.5,13.8Zm-18.93,1.26a2.53,2.53,0,0,1,1.81,2.09,8.76,8.76,0,0,1,.1,2.36,2.74,2.74,0,0,1-1.83,2.54,4.73,4.73,0,0,1-1.77.22l-1,0,0-2.95c0-2,0-3,.06-3.2A1.24,1.24,0,0,1,121,15,6,6,0,0,1,122.57,15.06Zm18.91,5.17c.49,1.09.88,2,.87,2h-3.5l.84-2c.47-1.09.86-2,.87-2S141,19.14,141.48,20.23Z"/><path d="M197.47,14.06c-2.16.28-3.82,1.32-4.43,2.78a3.2,3.2,0,0,0-.28,1.53,3.16,3.16,0,0,0,.09.94,3.86,3.86,0,0,0,1,1.71,12.7,12.7,0,0,0,3.07,2.06,12.68,12.68,0,0,1,2.87,1.9A3.6,3.6,0,0,1,201,28.55a2.34,2.34,0,0,1-1.62,1.67c-2.12.62-4.44-1-6.13-4.38-.34-.68-.41-.75-.61-.68s-.13-.16,0,2.31a10.83,10.83,0,0,0,.18,2.1,4.79,4.79,0,0,0,2.5,1.2,8.5,8.5,0,0,0,6.69-.86,6,6,0,0,0,1.28-1.28,4.17,4.17,0,0,0,.07-4.65,7,7,0,0,0-1.25-1.24,19.21,19.21,0,0,0-2.44-1.45c-2.1-1.12-2.78-1.57-3.38-2.26a3,3,0,0,1-.76-2.31,2.08,2.08,0,0,1,1.64-1.9,4.09,4.09,0,0,1,1.67,0,4.52,4.52,0,0,1,1.85,1,7.68,7.68,0,0,1,1.93,2.7c.14.34.21.4.42.33s.11,0,.12-.47c0-.25,0-1.05,0-1.79,0-1.5,0-1.46-.33-1.66a9.67,9.67,0,0,0-2.75-.82A11.69,11.69,0,0,0,197.47,14.06Z"/><path d="M179.43,14.35a39.94,39.94,0,0,1-5.48.09c-.66,0-1.32,0-1.48,0h-.28v.4l.48,0c1.3.07,1.71.36,1.88,1.3.09.48.09,12.25,0,12.75a1.2,1.2,0,0,1-.67,1.06,3.12,3.12,0,0,1-1.25.24l-.48,0v.4h2.72c2.32,0,2.86,0,3.68.07a21.52,21.52,0,0,0,3.68,0,8.85,8.85,0,0,0,5.19-2.48,8,8,0,0,0,2.22-4.58,11.91,11.91,0,0,0,0-2.31,7.49,7.49,0,0,0-2.12-4.47A9.19,9.19,0,0,0,182,14.42,24.32,24.32,0,0,0,179.43,14.35Zm2,.77a5.6,5.6,0,0,1,4.17,3.77,12.31,12.31,0,0,1,.55,5.52c-.36,2.83-1.69,4.71-3.82,5.39a5.49,5.49,0,0,1-3.84-.11,1.79,1.79,0,0,1-.71-1.15c-.06-.25-.06-.8-.08-5.85,0-3.7,0-5.71,0-6a1.68,1.68,0,0,1,1.55-1.7c.11,0,.54,0,1,0A6,6,0,0,1,181.39,15.12Z"/><path d="M69.82,14.48a.47.47,0,0,0,0,.16c0,.22.06.24.46.24,1,0,1.6.26,1.82.8s.2.43.2,6.9c0,6.63,0,6.44-.24,6.93s-.6.63-1.59.71l-.61,0,0,.13a.29.29,0,0,0,0,.21l0,.09h6.6c4.1,0,6.64,0,6.7,0s.21-.14.26-1.38.12-2.26.21-2.89a2.09,2.09,0,0,0,0-.39c0-.07-.29-.09-.37,0a.61.61,0,0,0-.13.24,6.13,6.13,0,0,1-4.51,3.85A12,12,0,0,1,76.36,30c-.67-.19-.92-.55-1-1.45,0-.21,0-1.52,0-3V22.83l.85,0a39.69,39.69,0,0,1,4.12.33,2.61,2.61,0,0,0,.61,0c.18-.07.27-1.1.12-1.46l-.07-.18-.34,0-1.15.1c-1,.11-1.89.16-3.13.19l-1,0V19.1a26.53,26.53,0,0,1,.08-3.1,1.19,1.19,0,0,1,1.09-1,6.86,6.86,0,0,1,2.28.06,5.3,5.3,0,0,1,3.32,3.12,3.66,3.66,0,0,0,.2.44c0,.08.34.07.37,0s-.06-4-.09-4a.27.27,0,0,0-.14-.1c-.09,0-2,0-6.34,0C70,14.4,69.86,14.4,69.82,14.48Z"/><path d="M151.92,14.47a.43.43,0,0,0,0,.22v.17l.28,0a3.94,3.94,0,0,1,2.3,1.29l.29.28,0,5.52c0,5.45,0,5.54-.1,6a3.05,3.05,0,0,1-.72,1.63,2.05,2.05,0,0,1-1.41.64c-.38,0-.39,0-.42.15a.67.67,0,0,0,0,.2l0,.1h3c1.93,0,3,0,3,0a.34.34,0,0,0,0-.16.35.35,0,0,0,0-.17,1.44,1.44,0,0,0-.4-.09,2.15,2.15,0,0,1-1-.33,3,3,0,0,1-1.11-2.39c0-.33,0-1.89,0-5.33V17.28l6,6.92c3.3,3.8,6,6.92,6.07,6.94a.37.37,0,0,0,.21,0l.13,0,0-6.77c0-6.26,0-6.81.09-7.14.31-1.55,1-2.23,2.25-2.33l.33,0,0-.13a.81.81,0,0,0,0-.22l0-.09-.79,0-1.48.06c-.44,0-1,0-1.6,0l-1.5,0h-.6v.12a.74.74,0,0,0,0,.21c0,.08.05.09.2.09a3.46,3.46,0,0,1,.48.06c1,.2,1.62,1,1.85,2.41.06.39.07.92.09,4.76,0,2.78,0,4.3,0,4.28-.32-.33-9.21-10.71-9.51-11.11s-.59-.71-.78-.78S152,14.41,151.92,14.47Z"/><path d="M21.85,16.59l0,1.88H32.93V14.72H21.85Z"/><path d="M36.57,22.08s0,2.52,0,7.39v7.38H21.85V40H40.29v-9c0-4.93,0-9,0-9C38.61,22.07,36.6,22.07,36.57,22.08Z"/><path d="M0,31.05v9H18.33V36.77H3.52V22.11l-1.75,0H0Z"/><path d="M7.12,24v1.9H18.19V22.11l-5.53,0H7.12Z"/><path d="M21.85,27.73v5.56h3.76V22.17H21.85Z"/><path d="M29.21,27.73v5.56h3.72V22.17H29.21Z"/><path d="M7.12,31.33v1.88H18.21V29.45H7.12Z"/></g></g></svg>